<svg xmlns="http://www.w3.org/2000/svg" version="1.1" xmlns:xlink="http://www.w3.org/1999/xlink" xmlns:svgjs="http://svgjs.dev/svgjs" width="2000" height="1500" viewBox="0 0 2000 1500"><rect width="2000" height="1500" fill="#d33313"></rect><g transform="matrix(0.75,0,0,0.75,249.090909090909,153.40243073143438)"><svg viewBox="0 0 396 307" data-background-color="#d33313" preserveAspectRatio="xMidYMid meet" height="1550" width="2000" xmlns="http://www.w3.org/2000/svg" xmlns:xlink="http://www.w3.org/1999/xlink"><g id="tight-bounds" transform="matrix(1,0,0,1,0.2400000000000091,4.085555140749989)"><svg viewBox="0 0 395.52 302.4431095394269" height="302.4431095394269" width="395.52"><g><svg viewBox="0 0 395.52 302.4431095394269" height="302.4431095394269" width="395.52"><g transform="matrix(1,0,0,1,0,148.25781485475278)"><svg viewBox="0 0 395.52 154.18529468467412" height="154.18529468467412" width="395.52"><g id="textblocktransform"><svg viewBox="0 0 395.52 154.18529468467412" height="154.18529468467412" width="395.52" id="textblock"><g><svg viewBox="0 0 395.52 154.18529468467412" height="154.18529468467412" width="395.52"><g transform="matrix(1,0,0,1,0,0)"><svg width="395.52" viewBox="-1.5373799999999997 -18.18170675669226 119.00053497894923 46.389901394608756" height="154.18529468467412" data-palette-color="#a1daaf"><path d="M-1.423 14.198l5.421-8.479-5.535-2.34c0.298-0.533 0.675-0.996 1.13-1.39 0.462-0.391 0.96-0.694 1.493-0.91 0.533-0.216 1.084-0.33 1.654-0.343 0.57-0.012 1.119 0.093 1.647 0.316v0l2.063 0.873 11.047-17.239c0.395-0.608 0.863-1.126 1.406-1.555 0.549-0.426 1.12-0.749 1.713-0.969 0.592-0.22 1.195-0.334 1.807-0.344 0.603-0.006 1.159 0.099 1.669 0.316v0l5.83 2.465c0.497 0.21 0.954 0.534 1.37 0.97 0.414 0.443 0.753 0.959 1.017 1.549 0.258 0.587 0.427 1.223 0.507 1.908 0.073 0.682 0.027 1.383-0.139 2.102v0l-7.989 34.112-5.728-2.422 2.381-9.764-11.78-4.982-5.328 8.517zM11.939 4.246l10.481 4.433 4.996-20.362-4.393-1.858c-1.821 2.885-3.654 5.816-5.499 8.792-1.842 2.985-3.703 5.984-5.585 8.995zM37.056 26.936l0.943-27.243 6.216 0.215-0.362 10.464 6.62-8.266c0.576-0.64 1.169-1.12 1.781-1.44 0.611-0.319 1.35-0.464 2.216-0.433v0c0.693 0.024 1.35 0.22 1.971 0.588 0.621 0.368 1.161 0.861 1.62 1.477 0.452 0.616 0.808 1.329 1.067 2.139 0.259 0.809 0.372 1.674 0.34 2.593v0l-0.102 2.938 5.728-7.356c0.575-0.627 1.219-1.102 1.931-1.424 0.705-0.322 1.48-0.469 2.326-0.44v0c0.693 0.024 1.353 0.22 1.981 0.589 0.621 0.368 1.158 0.861 1.61 1.477 0.459 0.616 0.818 1.329 1.077 2.138 0.259 0.809 0.372 1.674 0.34 2.594v0l-0.561 16.21 4.627 0.16c-0.088 0.604-0.277 1.174-0.57 1.711-0.285 0.537-0.638 0.999-1.058 1.385-0.42 0.386-0.894 0.686-1.422 0.901-0.534 0.215-1.088 0.313-1.661 0.293v0l-1.399-0.049c-0.68-0.024-1.31-0.219-1.891-0.586-0.588-0.367-1.088-0.858-1.5-1.472-0.419-0.615-0.738-1.326-0.957-2.135-0.226-0.802-0.323-1.662-0.291-2.581v0l0.542-15.641-9.06 10.233-0.405 11.713-6.217-0.216 0.771-22.246-9.661 11.122-0.374 10.804zM80.685-7.883v0c-0.583 0.166-1.159 0.213-1.728 0.14-0.575-0.072-1.11-0.245-1.604-0.52-0.488-0.277-0.913-0.637-1.276-1.082-0.364-0.451-0.63-0.968-0.796-1.551v0c-0.166-0.583-0.213-1.159-0.139-1.728 0.072-0.575 0.243-1.106 0.512-1.592 0.275-0.494 0.636-0.93 1.083-1.307 0.442-0.369 0.955-0.637 1.539-0.803v0c0.583-0.166 1.164-0.211 1.74-0.133 0.572 0.086 1.106 0.267 1.6 0.542 0.493 0.268 0.924 0.627 1.295 1.076 0.369 0.442 0.637 0.955 0.803 1.539v0c0.166 0.583 0.211 1.164 0.133 1.74-0.08 0.57-0.257 1.103-0.532 1.597-0.275 0.494-0.638 0.924-1.088 1.289-0.457 0.366-0.971 0.631-1.542 0.793zM85.158 18.867l-5.667-19.858 5.981-1.707 6.26 21.935 5.356-1.529c0.115 0.598 0.12 1.196 0.013 1.796-0.106 0.599-0.303 1.147-0.591 1.645-0.281 0.496-0.64 0.928-1.076 1.295-0.436 0.367-0.93 0.629-1.481 0.787v0l-2.202 0.628c-0.654 0.187-1.32 0.196-1.999 0.03-0.679-0.167-1.318-0.477-1.918-0.93-0.594-0.454-1.126-1.031-1.596-1.728-0.468-0.692-0.828-1.48-1.08-2.364zM102.226 12.644l-7.227-14.988-1.874 0.903-1.742-3.612 1.874-0.903-3.145-6.522 4.257-5.493 4.491 9.313 6.314-3.045 1.742 3.612-6.315 3.045 8.166 16.934 8.395-4.048c0.203 0.575 0.304 1.167 0.301 1.776-0.009 0.611-0.112 1.187-0.311 1.726-0.205 0.543-0.49 1.032-0.857 1.468-0.367 0.436-0.809 0.779-1.326 1.028v0l-5.413 2.61c-0.613 0.295-1.267 0.419-1.964 0.37-0.697-0.049-1.374-0.248-2.031-0.597-0.663-0.346-1.285-0.823-1.867-1.431-0.579-0.602-1.068-1.317-1.468-2.146z" opacity="1" transform="matrix(1,0,0,1,0,0)" fill="#a1daaf" class="wordmark-text-0" data-fill-palette-color="primary" id="text-0"></path></svg></g></svg></g></svg></g></svg></g><g transform="matrix(1,0,0,1,75.54432,0)"><svg viewBox="0 0 244.43135999999998 137.7025268068524" height="137.7025268068524" width="244.43135999999998"><g><svg xmlns="http://www.w3.org/2000/svg" xmlns:xlink="http://www.w3.org/1999/xlink" version="1.1" x="0" y="0" viewBox="6.844 25.357 87.48600543734183 49.286" enable-background="new 0 0 100 100" xml:space="preserve" height="137.7025268068524" width="244.43135999999998" class="icon-icon-0" data-fill-palette-color="accent" id="icon-0"><g fill="#a1daaf" data-fill-palette-color="accent"><path d="M92.568 45.765L73.957 27.154C72.94 26.138 71.65 25.493 70.325 25.357H13.092A6.25 6.25 0 0 0 6.844 31.605V68.395A6.25 6.25 0 0 0 13.092 74.643H70.325C71.65 74.508 72.942 73.901 73.958 72.883L92.568 54.272A6.015 6.015 0 0 0 92.568 45.765M49.188 56.498C50.428 56.498 51.616 55.648 52.751 53.949S54.453 50.193 54.453 47.778C54.453 44.283 53.193 41.445 50.674 39.263 48.153 37.08 45.098 35.99 41.506 35.99 37.561 35.99 34.247 37.343 31.567 40.048 28.885 42.754 27.545 46.087 27.545 50.049 27.545 53.752 28.806 56.969 31.325 59.698 33.846 62.428 37.385 63.793 41.942 63.793 45.455 63.793 49.039 62.856 52.694 60.987 52.694 60.987 54.564 60.058 55.359 61.635 56.147 63.202 54.206 64.23 54.206 64.23 50.263 66.241 46.176 67.247 41.942 67.247 36.322 67.247 31.856 65.553 28.547 62.162 25.237 58.772 23.583 54.726 23.583 50.023 23.583 45.112 25.322 41.005 28.8 37.705 32.279 34.403 36.483 32.753 41.41 32.753 46.047 32.753 49.944 34.174 53.1 37.016 56.257 39.858 57.834 43.446 57.834 47.778 57.834 50.918 56.949 53.717 55.177 56.171 53.406 58.627 51.248 59.856 48.704 59.856 46.723 59.856 45.352 59.018 44.597 57.343 43.212 59.082 41.522 59.953 39.525 59.953 37.48 59.953 35.728 59.098 34.271 57.391S32.085 53.438 32.085 50.652C32.085 47.786 32.905 45.454 34.548 43.659 36.192 41.863 38.149 40.966 40.418 40.966 42.608 40.966 44.187 41.659 45.152 43.043L45.165 42.862H45.175S45.32 40.587 47.491 40.824C49.344 41.027 49.288 43.132 49.288 43.132V43.135L49.287 43.139 48.173 52.609A19 19 0 0 0 48.027 54.879C48.027 55.958 48.415 56.498 49.188 56.498M76.503 54.738A4.745 4.745 0 0 1 71.765 49.999C71.765 47.386 73.891 45.261 76.503 45.261S81.241 47.386 81.241 49.999A4.745 4.745 0 0 1 76.503 54.738" fill="#a1daaf" data-fill-palette-color="accent"></path><path d="M40.758 44.903C39.501 44.903 38.462 45.454 37.641 46.557 36.82 47.661 36.41 49.09 36.41 50.845 36.41 52.342 36.728 53.578 37.364 54.552 38 55.527 38.825 56.014 39.84 56.014 41.128 56.014 42.292 55.39 43.331 54.142S44.889 51.273 44.889 49.275C44.889 48.147 44.491 47.137 43.694 46.243 42.895 45.35 41.917 44.903 40.758 44.903" fill="#a1daaf" data-fill-palette-color="accent"></path></g></svg></g></svg></g><g></g></svg></g><defs></defs></svg><rect width="395.52" height="302.4431095394269" fill="none" stroke="none" visibility="hidden"></rect></g></svg></g></svg>